<svg width="120" height="35" viewBox="0 0 120 35" fill="none" xmlns="http://www.w3.org/2000/svg">
<g clip-path="url(#clip0_1277_11874)">
<rect x="42" width="78" height="35" rx="3" fill="#3E3E3E"/>
<rect width="53" height="35" rx="3" fill="#FED036"/>
<path d="M25.2409 24H22.3809V14.66L18.6209 24H17.3809L13.6209 14.66V24H10.7809V10.66H14.7609L18.0009 18.72L21.2409 10.66H25.2409V24ZM38.6903 24H35.4303L32.8103 19.26H30.7303V24H27.8903V10.66H34.1303C35.5036 10.66 36.5903 11.06 37.3903 11.86C38.2036 12.66 38.6103 13.6933 38.6103 14.96C38.6103 16.0533 38.3236 16.94 37.7503 17.62C37.1903 18.3 36.5036 18.7333 35.6903 18.92L38.6903 24ZM33.7103 16.76C34.297 16.76 34.777 16.6 35.1503 16.28C35.5236 15.9467 35.7103 15.5067 35.7103 14.96C35.7103 14.4133 35.5236 13.98 35.1503 13.66C34.777 13.3267 34.297 13.16 33.7103 13.16H30.7303V16.76H33.7103ZM43.1219 23.74C42.8019 24.06 42.4219 24.22 41.9819 24.22C41.5419 24.22 41.1619 24.06 40.8419 23.74C40.5219 23.42 40.3619 23.04 40.3619 22.6C40.3619 22.16 40.5219 21.78 40.8419 21.46C41.1619 21.14 41.5419 20.98 41.9819 20.98C42.4219 20.98 42.8019 21.14 43.1219 21.46C43.4419 21.78 43.6019 22.16 43.6019 22.6C43.6019 23.04 43.4419 23.42 43.1219 23.74Z" fill="#3E3E3E"/>
<path d="M67.0876 10.66H76.8276V13.16H69.9276V15.52H73.3876C74.7609 15.52 75.8409 15.9267 76.6276 16.74C77.4142 17.5533 77.8076 18.56 77.8076 19.76C77.8076 20.96 77.4142 21.9667 76.6276 22.78C75.8409 23.5933 74.7609 24 73.3876 24H67.0876V10.66ZM73.0076 18.02H69.9276V21.5H73.0076C73.5676 21.5 74.0209 21.34 74.3676 21.02C74.7276 20.7 74.9076 20.28 74.9076 19.76C74.9076 19.2267 74.7276 18.8067 74.3676 18.5C74.0209 18.18 73.5676 18.02 73.0076 18.02ZM79.568 10.66H82.408V15.4H85.808C87.1947 15.4 88.288 15.8133 89.088 16.64C89.888 17.4667 90.288 18.4867 90.288 19.7C90.288 20.9267 89.888 21.9533 89.088 22.78C88.3014 23.5933 87.208 24 85.808 24H79.568V10.66ZM85.428 17.9H82.408V21.5H85.428C86.0014 21.5 86.468 21.34 86.828 21.02C87.2014 20.6867 87.388 20.2467 87.388 19.7C87.388 19.1533 87.2014 18.72 86.828 18.4C86.468 18.0667 86.0014 17.9 85.428 17.9ZM94.268 24H91.408V10.66H94.268V24ZM102.852 24H99.9918V13.16H96.0918V10.66H106.732V13.16H102.852V24Z" fill="white"/>
</g>
<defs>
<clipPath id="clip0_1277_11874">
<rect width="120" height="35" fill="white"/>
</clipPath>
</defs>
</svg>
