<svg xmlns="http://www.w3.org/2000/svg" xmlns:xlink="http://www.w3.org/1999/xlink" version="1.1" width="256" height="256" viewBox="0 0 256 256" xml:space="preserve">

<defs>
</defs>
<g style="stroke: none; stroke-width: 0; stroke-dasharray: none; stroke-linecap: butt; stroke-linejoin: miter; stroke-miterlimit: 10; fill: none; fill-rule: nonzero; opacity: 1;" transform="translate(1.4065934065934016 1.4065934065934016) scale(2.81 2.81)" >
	<path d="M 73.594 52.23 H 59.275 c -0.553 0 -1 -0.447 -1 -1 c 0 -0.553 0.447 -1 1 -1 h 14.319 c 0.553 0 1 0.447 1 1 C 74.594 51.783 74.147 52.23 73.594 52.23 z" style="stroke: none; stroke-width: 1; stroke-dasharray: none; stroke-linecap: butt; stroke-linejoin: miter; stroke-miterlimit: 10; fill: rgb(248,204,29); fill-rule: nonzero; opacity: 1;" transform=" matrix(1 0 0 1 0 0) " stroke-linecap="round" />
	<path d="M 38.577 31.532 c -0.552 0 -1 -0.448 -1 -1 V 16.213 c 0 -0.552 0.448 -1 1 -1 c 0.552 0 1 0.448 1 1 v 14.319 C 39.577 31.085 39.129 31.532 38.577 31.532 z" style="stroke: none; stroke-width: 1; stroke-dasharray: none; stroke-linecap: butt; stroke-linejoin: miter; stroke-miterlimit: 10; fill: rgb(248,204,29); fill-rule: nonzero; opacity: 1;" transform=" matrix(1 0 0 1 0 0) " stroke-linecap="round" />
	<path d="M 53.213 37.594 c -0.256 0 -0.512 -0.098 -0.707 -0.293 c -0.391 -0.391 -0.391 -1.024 0 -1.414 L 62.63 25.762 c 0.391 -0.391 1.024 -0.391 1.414 0 s 0.391 1.024 0 1.414 L 53.92 37.301 C 53.725 37.497 53.469 37.594 53.213 37.594 z" style="stroke: none; stroke-width: 1; stroke-dasharray: none; stroke-linecap: butt; stroke-linejoin: miter; stroke-miterlimit: 10; fill: rgb(248,204,29); fill-rule: nonzero; opacity: 1;" transform=" matrix(1 0 0 1 0 0) " stroke-linecap="round" />
	<path d="M 72.216 21.714 c -0.553 0 -1 -0.448 -1 -1 v -6.213 c 0 -0.552 0.447 -1 1 -1 c 0.553 0 1 0.448 1 1 v 6.213 C 73.217 21.266 72.769 21.714 72.216 21.714 z" style="stroke: none; stroke-width: 1; stroke-dasharray: none; stroke-linecap: butt; stroke-linejoin: miter; stroke-miterlimit: 10; fill: rgb(248,204,29); fill-rule: nonzero; opacity: 1;" transform=" matrix(1 0 0 1 0 0) " stroke-linecap="round" />
	<path d="M 75.323 18.608 h -6.213 c -0.553 0 -1 -0.448 -1 -1 s 0.447 -1 1 -1 h 6.213 c 0.553 0 1 0.448 1 1 S 75.875 18.608 75.323 18.608 z" style="stroke: none; stroke-width: 1; stroke-dasharray: none; stroke-linecap: butt; stroke-linejoin: miter; stroke-miterlimit: 10; fill: rgb(248,204,29); fill-rule: nonzero; opacity: 1;" transform=" matrix(1 0 0 1 0 0) " stroke-linecap="round" />
	<path d="M 38.724 8.396 c -2.317 0 -4.203 -1.886 -4.203 -4.203 c 0 -2.318 1.886 -4.204 4.203 -4.204 c 2.318 0 4.204 1.886 4.204 4.204 C 42.927 6.51 41.042 8.396 38.724 8.396 z M 38.724 1.99 c -1.215 0 -2.203 0.989 -2.203 2.203 s 0.988 2.203 2.203 2.203 c 1.215 0 2.203 -0.988 2.203 -2.203 S 39.938 1.99 38.724 1.99 z" style="stroke: none; stroke-width: 1; stroke-dasharray: none; stroke-linecap: butt; stroke-linejoin: miter; stroke-miterlimit: 10; fill: rgb(248,204,29); fill-rule: nonzero; opacity: 1;" transform=" matrix(1 0 0 1 0 0) " stroke-linecap="round" />
	<path d="M 85.807 55.48 c -2.318 0 -4.204 -1.886 -4.204 -4.204 c 0 -2.318 1.886 -4.203 4.204 -4.203 c 2.318 0 4.203 1.885 4.203 4.203 C 90.011 53.594 88.125 55.48 85.807 55.48 z M 85.807 49.073 c -1.215 0 -2.204 0.989 -2.204 2.203 c 0 1.215 0.989 2.204 2.204 2.204 c 1.214 0 2.203 -0.989 2.203 -2.204 C 88.01 50.062 87.022 49.073 85.807 49.073 z" style="stroke: none; stroke-width: 1; stroke-dasharray: none; stroke-linecap: butt; stroke-linejoin: miter; stroke-miterlimit: 10; fill: rgb(248,204,29); fill-rule: nonzero; opacity: 1;" transform=" matrix(1 0 0 1 0 0) " stroke-linecap="round" />
	<circle cx="30.595" cy="59.405" r="22.505" style="stroke: none; stroke-width: 1; stroke-dasharray: none; stroke-linecap: butt; stroke-linejoin: miter; stroke-miterlimit: 10; fill: rgb(248,204,29); fill-rule: nonzero; opacity: 1;" transform="  matrix(1 0 0 1 0 0) "/>
	<path d="M 51.083 89.989 c -9.925 0.001 -22.89 -8.341 -32.81 -18.262 C 5.063 58.517 -5.348 39.908 3.009 30.268 c 0.4 -0.462 0.921 -0.821 1.549 -1.067 c 1.105 -0.433 3.092 -1.271 5.906 -2.491 l 0 0 c 1.301 -0.564 2.549 -1.111 3.504 -1.53 c 1.471 -0.649 3.199 -0.09 4.02 1.294 l 7.912 13.334 c 0.568 0.955 0.593 2.156 0.067 3.136 L 21.06 52.08 c -0.25 0.466 -0.167 1.03 0.207 1.403 l 15.25 15.251 c 0.374 0.373 0.938 0.458 1.402 0.206 l 9.139 -4.905 c 0.978 -0.525 2.181 -0.499 3.135 0.066 l 13.334 7.912 c 1.384 0.822 1.941 2.55 1.293 4.021 c -0.41 0.935 -0.945 2.155 -1.497 3.428 c -1.238 2.855 -2.087 4.868 -2.524 5.981 c -0.244 0.626 -0.604 1.148 -1.066 1.549 C 57.332 89.072 54.374 89.989 51.083 89.989 z M 11.338 28.51 L 11.338 28.51 c -2.877 1.248 -4.913 2.107 -6.05 2.553 c -0.323 0.126 -0.582 0.3 -0.767 0.514 c -7.519 8.674 2.591 26.159 15.167 38.735 c 12.575 12.575 30.062 22.688 38.735 15.167 c 0.215 -0.186 0.388 -0.444 0.514 -0.767 c 0.445 -1.135 1.305 -3.171 2.554 -6.05 c 0.551 -1.273 1.087 -2.495 1.498 -3.433 c 0.241 -0.547 0.033 -1.19 -0.484 -1.495 l -13.332 -7.912 c -0.353 -0.211 -0.803 -0.221 -1.169 -0.025 l -9.138 4.905 c -1.248 0.672 -2.762 0.447 -3.763 -0.554 l -15.25 -15.251 c -1.002 -1.002 -1.225 -2.514 -0.555 -3.763 l 4.906 -9.139 c 0.196 -0.365 0.186 -0.812 -0.025 -1.168 l -7.912 -13.334 c -0.306 -0.515 -0.951 -0.725 -1.495 -0.484 C 13.834 27.423 12.613 27.957 11.338 28.51 z" style="stroke: none; stroke-width: 1; stroke-dasharray: none; stroke-linecap: butt; stroke-linejoin: miter; stroke-miterlimit: 10; fill: rgb(0,0,0); fill-rule: nonzero; opacity: 1;" transform=" matrix(1 0 0 1 0 0) " stroke-linecap="round" />
</g>
</svg>